<svg xmlns="http://www.w3.org/2000/svg" viewBox="0 0 1200 630" role="img" aria-label="DevGuardian AI preview">
  <rect width="1200" height="630" fill="#f2f1ea"/>
  <path d="M0 0h1200v630H0z" fill="none" stroke="#111111" stroke-width="24"/>
  <g opacity="0.18" stroke="#111111" stroke-width="2">
    <path d="M80 0v630M160 0v630M240 0v630M320 0v630M400 0v630M480 0v630M560 0v630M640 0v630M720 0v630M800 0v630M880 0v630M960 0v630M1040 0v630M1120 0v630"/>
    <path d="M0 70h1200M0 140h1200M0 210h1200M0 280h1200M0 350h1200M0 420h1200M0 490h1200M0 560h1200"/>
  </g>
  <rect x="80" y="74" width="180" height="180" fill="#111111"/>
  <path d="M118 112h104v44c0 47-20 73-52 86-32-13-52-39-52-86v-44Z" fill="#f2f1ea" stroke="#f97316" stroke-width="10"/>
  <path d="M144 164h52M170 138v52" stroke="#0f766e" stroke-width="13" stroke-linecap="square"/>
  <text x="80" y="360" fill="#111111" font-family="monospace" font-size="76" font-weight="800">DevGuardian AI</text>
  <text x="82" y="426" fill="#374151" font-family="monospace" font-size="30">Terminal3-verified software engineering agents</text>
  <g font-family="monospace" font-size="25" font-weight="700">
    <rect x="82" y="492" width="186" height="56" fill="#111111"/>
    <text x="108" y="529" fill="#f2f1ea">repo.read</text>
    <rect x="288" y="492" width="236" height="56" fill="#0f766e"/>
    <text x="314" y="529" fill="#ffffff">security.scan</text>
    <rect x="544" y="492" width="244" height="56" fill="#ea580c"/>
    <text x="570" y="529" fill="#ffffff">deploy.release</text>
  </g>
</svg>
